<svg id="Layer_1" enable-background="new 0 0 511.998 511.998" height="512" viewBox="0 0 511.998 511.998" width="512" xmlns="http://www.w3.org/2000/svg"><g><g><path d="m255.999 335.315-10.667 91.351 10.667 68.333c44.025 0 79.842-35.817 79.842-79.842s-35.816-79.842-79.842-79.842z" fill="#f7f0eb"/><path d="m176.157 415.157c0 44.025 35.817 79.842 79.842 79.842v-159.684c-44.025 0-79.842 35.817-79.842 79.842z" fill="#fffbf5"/></g><g><path d="m255.999 16.999-10.667 217.667 10.667 181.296c16.875 26.249 46.338 43.669 79.795 43.669 43.121 0 80.828-29.127 91.72-70.844 1.543-5.721 32.116-119.764 32.116-168.156 0-112.283-91.348-203.632-203.631-203.632z" fill="#efe2dd"/><path d="m106.666 202.666h149.333v-185.667c-55.168 0-105.273 22.062-141.982 57.815-.03.343-7.351 127.852-7.351 127.852z" fill="#f7f0eb"/></g><g><path d="m255.999 127.825-10.667 74.857 10.667 91.225c16.73-39.037 28.333-72.875 28.333-100.575.001-20.627-4.991-48.418-28.333-65.507z" fill="#ebb65b"/><path d="m253.653 126.185c-23.764-15.843-47.939-8.968-69.268-2.903-25.142 7.149-40.157 10.399-56.446-5.89-16.182-16.182-13.952-42.236-13.922-42.579-38.004 37.014-61.65 88.702-61.65 145.817 0 48.371 30.548 162.337 32.114 168.149 10.89 41.721 48.599 70.851 91.722 70.851 33.457 0 62.92-17.42 79.795-43.669v-122.053-166.083c-.761-.558-1.543-1.105-2.345-1.64z" fill="#ffc663"/></g><g><path d="m158.473 197.052h30v58.947h-30z" fill="#32393f"/><path d="m323.526 197.052h30v58.947h-30z" fill="#262b2f"/></g><g><path d="m266.719 291.368h-10.72l-10.667 39.298 10.667 43.228 28.793-17.276c10.581-6.348 17.055-17.783 17.055-30.122 0-19.401-15.727-35.128-35.128-35.128z" fill="#744727"/><path d="m245.279 291.368c-19.401 0-35.128 15.727-35.128 35.128 0 12.339 6.474 23.774 17.055 30.122l28.793 17.276v-82.526z" fill="#8d562f"/></g><g><path d="m114.024 74.798c-10.358-5.904-33.94-7.682-50.079-3.235-17.59 4.847-33.502 16.228-46.008 32.902l-.144.191c-12.46 16.614-18.735 37.176-17.678 57.913l5.571 159.644.011.265c1.943 36.927 32.432 65.854 69.411 65.854h9.892l-4.21-18.354c-.161-.701-15.332-71.029 3.23-160.858 8.979-43.454 32.979-79.965 30.004-134.322z" fill="#c97840"/><path d="m397.974 74.798c10.358-5.904 33.941-7.682 50.079-3.235 17.59 4.847 33.502 16.228 46.008 32.902l.143.191c12.461 16.614 18.735 37.176 17.678 57.913l-5.571 159.644-.011.265c-1.943 36.927-32.432 65.854-69.411 65.854h-9.892l4.21-18.354c.161-.701 15.332-71.029-3.23-160.858-8.978-43.454-32.978-79.965-30.003-134.322z" fill="#ae632c"/></g></g></svg>